<svg xmlns="http://www.w3.org/2000/svg" viewBox="0 0 841.9 595.3">
  <g fill="#61dafb">
    <circle cx="420.9" cy="297.6" r="45.7"/>
    <path d="M520.4 78.5c-8.5-1.5-16.7-2.9-25.8-3.6 4.9 26.5 6.9 56.1 2.6 88.9-34-5.2-74.7-5.2-110.5 0-4.3-32.5-2.9-61.3 2.6-88.9-9-0.7-17-2-25.6-3.7 28.5-16.3 57.1-13.8 88.3 0 31-14 59.9-11 88.5 0z"/>
    <path d="M330.4 313c2.8 44 22.5 82.8 63.6 104.6 8.9 5.2 18.2 9.2 27.8 12.1-7.2-37.5-9.2-74.7-2.2-110.5-9.6 4.9-19.5 10.1-29.4 16.8-33 25.4-50.7 72.6-60.3 97.6-4.5-15.4-7.4-32.1-8.7-50.6-1.8-30.8 5.2-61.2 9.2-70z"/>
    <path d="M522.3 413c-31 28-66.5 44.1-105.4 44.1-39.5 0-74.7-15.6-105.4-44.1 7.8-35.5 11.7-74.7 10.6-114.6 33 4.3 71.4 4.3 105.4 0 1.1 40 3.1 79.1-5.2 114.6z"/>
  </g>
</svg>